<svg width="101" height="100" viewBox="0 0 101 100" fill="none" xmlns="http://www.w3.org/2000/svg">
<path d="M48.1642 90.0002C69.9428 90.0002 87.5978 72.3451 87.5978 50.5665C87.5978 28.7879 69.9428 11.1328 48.1642 11.1328C26.3855 11.1328 8.73047 28.7879 8.73047 50.5665C8.73047 72.3451 26.3855 90.0002 48.1642 90.0002Z" fill="#F6F0F0"/>
<path d="M92.3674 48.4337C92.3674 69.9362 74.9362 87.3674 53.4337 87.3674C31.9312 87.3674 14.5 69.9362 14.5 48.4337C14.5 26.9312 31.9312 9.5 53.4337 9.5C74.9362 9.5 92.3674 26.9312 92.3674 48.4337Z" stroke="black" stroke-linecap="round" stroke-linejoin="round"/>
<path d="M67.5807 42.7493C67.5807 45.7702 66.6849 48.541 65.1432 50.8535C62.8932 54.1868 59.3307 56.541 55.1849 57.1452C54.4766 57.2702 53.7474 57.3327 52.9974 57.3327C52.2474 57.3327 51.5182 57.2702 50.8099 57.1452C46.6641 56.541 43.1016 54.1868 40.8516 50.8535C39.3099 48.541 38.4141 45.7702 38.4141 42.7493C38.4141 34.6868 44.9349 28.166 52.9974 28.166C61.0599 28.166 67.5807 34.6868 67.5807 42.7493Z" stroke="black" stroke-linecap="round" stroke-linejoin="round"/>
<path d="M72.2721 62.4787L68.8346 63.2912C68.0637 63.4787 67.4596 64.062 67.2929 64.8328L66.5637 67.8953C66.1679 69.562 64.0429 70.0621 62.9387 68.7496L53.0012 57.3328L43.0637 68.7703C41.9596 70.0828 39.8346 69.5828 39.4387 67.9162L38.7096 64.8537C38.5221 64.0828 37.9179 63.4787 37.1679 63.312L33.7304 62.4996C32.1471 62.1246 31.5846 60.1453 32.7304 58.9995L40.8554 50.8745C43.1054 54.2078 46.6679 56.5621 50.8137 57.1663C51.5221 57.2913 52.2512 57.3538 53.0012 57.3538C53.7512 57.3538 54.4804 57.2913 55.1887 57.1663C59.3346 56.5621 62.8971 54.2078 65.1471 50.8745L73.2721 58.9995C74.4179 60.1245 73.8554 62.1037 72.2721 62.4787Z" stroke="black" stroke-linecap="round" stroke-linejoin="round"/>
<path d="M54.2071 36.458L55.4363 38.9163C55.603 39.2497 56.0405 39.583 56.4363 39.6455L58.6655 40.0205C60.0821 40.2497 60.4155 41.2913 59.3946 42.3122L57.6655 44.0413C57.3738 44.333 57.2071 44.8955 57.3113 45.3122L57.8113 47.458C58.2071 49.1455 57.3113 49.8122 55.8113 48.9163L53.728 47.6872C53.353 47.458 52.728 47.458 52.353 47.6872L50.2696 48.9163C48.7696 49.7913 47.8738 49.1455 48.2696 47.458L48.7696 45.3122C48.853 44.9163 48.7071 44.333 48.4155 44.0413L46.6863 42.3122C45.6655 41.2913 45.9988 40.2705 47.4155 40.0205L49.6446 39.6455C50.0196 39.583 50.4571 39.2497 50.6238 38.9163L51.853 36.458C52.4571 35.1247 53.5405 35.1247 54.2071 36.458Z" stroke="black" stroke-linecap="round" stroke-linejoin="round"/>
</svg>
