<svg width="101" height="100" viewBox="0 0 101 100" fill="none" xmlns="http://www.w3.org/2000/svg">
<path d="M49 10C59.2108 10 69.0035 14.0754 76.2236 21.3298C83.4438 28.5841 87.5 38.4231 87.5 48.6823V94H10.5V48.6823C10.5 43.6024 11.4958 38.5723 13.4306 33.8792C15.3654 29.186 18.2013 24.9217 21.7764 21.3298C25.3514 17.7378 29.5957 14.8885 34.2667 12.9445C38.9377 11.0005 43.9441 10 49 10Z" fill="#F6F0F0"/>
<path d="M53.5134 7.5C58.5015 7.5 63.4408 8.48747 68.0494 10.4061C72.658 12.3247 76.8456 15.137 80.3731 18.6824C83.9006 22.2279 86.6989 26.4371 88.6081 31.0697C90.5173 35.7024 91.5 40.6678 91.5 45.6823V90.5H15.5V45.6823C15.5 35.5549 19.5028 25.8428 26.6269 18.6824C33.751 11.5221 43.4128 7.5 53.4866 7.5H53.5134Z" stroke="black" stroke-linecap="round" stroke-linejoin="round"/>
<path d="M53.0013 69.7352C51.1367 69.7352 49.7826 68.1873 48.5888 66.8186C48.0046 66.0296 47.2739 65.3605 46.4367 64.8478C45.4388 64.5963 44.4014 64.5418 43.3826 64.6873C42.5169 64.8822 41.6197 64.8912 40.7503 64.7138C39.8809 64.5364 39.059 64.1766 38.3388 63.6582C37.8206 62.9379 37.461 62.116 37.2836 61.2466C37.1062 60.3772 37.1151 59.4801 37.3096 58.6144C37.4541 57.5956 37.3996 56.5584 37.1492 55.5603C36.6365 54.723 35.9674 53.9924 35.1784 53.4082C33.8138 52.2144 32.2617 50.8623 32.2617 48.9957C32.2617 47.129 33.8096 45.7769 35.1784 44.5832C35.968 43.9988 36.6372 43.2673 37.1492 42.429C37.3996 41.4316 37.4541 40.3951 37.3096 39.3769C37.1148 38.5112 37.1058 37.6141 37.2832 36.7447C37.4606 35.8752 37.8204 35.0533 38.3388 34.3332C39.0584 33.8127 39.8802 33.4507 40.75 33.2712C41.6198 33.0916 42.5177 33.0985 43.3846 33.2915C44.4018 33.4419 45.4385 33.3923 46.4367 33.1457C47.2739 32.6338 48.0046 31.9653 48.5888 31.1769C49.7826 29.8123 51.1367 28.2603 53.0013 28.2603C54.8659 28.2603 56.2201 29.8061 57.4138 31.1769C57.9982 31.9665 58.7297 32.6357 59.568 33.1478C60.5646 33.3983 61.6005 33.4528 62.618 33.3082C63.4849 33.1156 64.3828 33.1089 65.2525 33.2884C66.1222 33.468 66.944 33.8297 67.6638 34.3498C68.1846 35.0693 68.5468 35.8911 68.7264 36.7609C68.906 37.6307 68.8988 38.5288 68.7055 39.3957C68.561 40.4131 68.6155 41.449 68.8659 42.4457C69.3779 43.284 70.0471 44.0154 70.8367 44.5998C72.2013 45.7936 73.7534 47.1478 73.7534 49.0123C73.7534 50.8769 72.2055 52.2311 70.8367 53.4248C70.0483 54.0091 69.3799 54.7397 68.868 55.5769C68.6175 56.5743 68.5631 57.6108 68.7076 58.629C68.9009 59.4959 68.908 60.3939 68.7285 61.2638C68.5489 62.1336 68.1867 62.9554 67.6659 63.6748C66.9454 64.1925 66.1235 64.5519 65.2542 64.7292C64.3849 64.9066 63.4879 64.898 62.6221 64.704C61.604 64.5597 60.5675 64.6142 59.5701 64.8644C58.7322 65.377 58.0008 66.0461 57.4159 66.8353C56.2201 68.1873 54.8763 69.7352 53.0013 69.7352ZM44.8617 62.5415C45.6694 62.5116 46.475 62.6411 47.2326 62.9228C48.3788 63.5376 49.3748 64.3985 50.1492 65.4436C51.0951 66.5269 52.0742 67.6457 52.993 67.6457C53.9117 67.6457 54.8909 66.5269 55.8388 65.4436C56.6128 64.3981 57.6089 63.5372 58.7555 62.9228C60.0407 62.5244 61.3984 62.4163 62.7305 62.6061C64.1305 62.6915 65.5763 62.7832 66.1742 62.1894C66.7721 61.5957 66.6846 60.1436 66.5909 58.7457C66.4023 57.4128 66.5104 56.0548 66.9076 54.7686C67.5223 53.6229 68.3823 52.627 69.4263 51.8519C70.5096 50.9061 71.6284 49.9269 71.6284 49.0082C71.6284 48.0894 70.5096 47.1103 69.4263 46.1644C68.382 45.3897 67.5219 44.3937 66.9076 43.2478C66.5103 41.9623 66.4022 40.6049 66.5909 39.2728C66.6763 37.8748 66.7659 36.429 66.1742 35.829C65.5826 35.229 64.1284 35.3165 62.7305 35.4123C61.3983 35.6008 60.041 35.4927 58.7555 35.0957C57.6095 34.4813 56.6135 33.6212 55.8388 32.5769C54.893 31.4936 53.9138 30.3748 52.9951 30.3748C52.0763 30.3748 51.0971 31.4936 50.1513 32.5769C49.3763 33.6209 48.3803 34.4809 47.2346 35.0957C45.9481 35.4908 44.5905 35.5989 43.2576 35.4123C41.8617 35.3269 40.4159 35.2373 39.8138 35.829C39.2117 36.4207 39.3055 37.8728 39.3971 39.2707C39.5814 40.598 39.4705 41.9496 39.0721 43.229C38.4576 44.3755 37.5967 45.3716 36.5513 46.1457C35.468 47.0915 34.3492 48.0728 34.3492 48.9894C34.3492 49.9061 35.468 50.8873 36.5513 51.8353C37.5962 52.6099 38.457 53.6059 39.0721 54.7519C39.4702 56.0387 39.5783 57.3976 39.3888 58.7311C39.3034 60.1311 39.2138 61.5769 39.8055 62.1748C40.3971 62.7728 41.8471 62.6853 43.2492 62.5915C43.7888 62.5811 44.3305 62.5415 44.8617 62.5415Z" fill="black" stroke="#F6F0F0" stroke-width="0.8"/>
<path d="M58.2096 52.1249C58.2063 53.2289 57.7663 54.2868 56.9856 55.0675C56.2049 55.8482 55.147 56.2882 54.043 56.2915V58.3957C54.0375 58.6683 53.9254 58.928 53.7306 59.1188C53.5358 59.3097 53.274 59.4166 53.0013 59.4165C52.8657 59.4187 52.7309 59.394 52.6049 59.3437C52.4789 59.2935 52.3641 59.2187 52.2672 59.1237C52.1703 59.0288 52.0932 58.9155 52.0404 58.7905C51.9876 58.6656 51.9602 58.5314 51.9596 58.3957V56.2915H49.3555C49.0792 56.2915 48.8142 56.1818 48.6189 55.9864C48.4235 55.7911 48.3138 55.5261 48.3138 55.2499C48.3138 54.9736 48.4235 54.7086 48.6189 54.5133C48.8142 54.3179 49.0792 54.2082 49.3555 54.2082H54.043C54.5955 54.2082 55.1254 53.9887 55.5161 53.598C55.9068 53.2073 56.1263 52.6774 56.1263 52.1249C56.1263 51.5723 55.9068 51.0424 55.5161 50.6517C55.1254 50.261 54.5955 50.0415 54.043 50.0415H51.9596C50.8546 50.0415 49.7948 49.6025 49.0134 48.8211C48.232 48.0397 47.793 46.9799 47.793 45.8749C47.793 44.7698 48.232 43.71 49.0134 42.9286C49.7948 42.1472 50.8546 41.7082 51.9596 41.7082V39.5269C51.9649 39.3962 51.9962 39.2678 52.0517 39.1493C52.1071 39.0308 52.1856 38.9245 52.2826 38.8367C52.3796 38.7488 52.4931 38.6812 52.6165 38.6377C52.7399 38.5941 52.8707 38.5756 53.0013 38.5832C53.2632 38.5718 53.519 38.6636 53.7138 38.839C53.9086 39.0143 54.0268 39.2591 54.043 39.5207V41.7082H56.6471C56.9234 41.7082 57.1884 41.8179 57.3837 42.0133C57.5791 42.2086 57.6888 42.4736 57.6888 42.7499C57.6845 43.0248 57.5734 43.2873 57.379 43.4817C57.1845 43.6761 56.9221 43.7872 56.6471 43.7915H51.9596C51.4071 43.7915 50.8772 44.011 50.4865 44.4017C50.0958 44.7924 49.8763 45.3223 49.8763 45.8749C49.8763 46.4274 50.0958 46.9573 50.4865 47.348C50.8772 47.7387 51.4071 47.9582 51.9596 47.9582H54.043C55.148 47.9582 56.2078 48.3972 56.9892 49.1786C57.7706 49.96 58.2096 51.0198 58.2096 52.1249Z" fill="black" stroke="#F6F0F0" stroke-width="0.8"/>
</svg>
