<svg width="19" height="18" viewBox="0 0 19 18" fill="none" xmlns="http://www.w3.org/2000/svg">
<path d="M12.1675 15.75C12.1675 15.8619 12.123 15.9692 12.0439 16.0483C11.9648 16.1274 11.8575 16.1719 11.7456 16.1719H7.24562C7.13373 16.1719 7.02642 16.1274 6.94731 16.0483C6.86819 15.9692 6.82374 15.8619 6.82374 15.75C6.82374 15.6381 6.86819 15.5308 6.94731 15.4517C7.02642 15.3726 7.13373 15.3281 7.24562 15.3281H11.7456C11.8575 15.3281 11.9648 15.3726 12.0439 15.4517C12.123 15.5308 12.1675 15.6381 12.1675 15.75ZM16.3644 4.30522C15.744 3.09175 14.8119 2.06522 13.6637 1.331C13.5693 1.27645 13.4575 1.26058 13.3516 1.2867C13.2458 1.31283 13.1541 1.37892 13.0959 1.47112C13.0377 1.56332 13.0175 1.67447 13.0395 1.78127C13.0614 1.88806 13.1239 1.98221 13.2137 2.04397C14.2391 2.6949 15.0699 3.61043 15.6184 4.69404C15.644 4.74321 15.6789 4.78687 15.7213 4.82253C15.7637 4.85818 15.8127 4.88514 15.8656 4.90185C15.9184 4.91857 15.974 4.92471 16.0292 4.91994C16.0844 4.91517 16.1381 4.89957 16.1873 4.87404C16.2364 4.84851 16.2801 4.81355 16.3157 4.77114C16.3514 4.72874 16.3784 4.67973 16.3951 4.62691C16.4118 4.57409 16.4179 4.51849 16.4132 4.4633C16.4084 4.4081 16.3928 4.35438 16.3673 4.30522H16.3644ZM3.38406 4.69404C3.9326 3.61043 4.76336 2.6949 5.78874 2.04397C5.8786 1.98221 5.94105 1.88806 5.96301 1.78127C5.98498 1.67447 5.96474 1.56332 5.90654 1.47112C5.84835 1.37892 5.75672 1.31283 5.65086 1.2867C5.54501 1.26058 5.43315 1.27645 5.33874 1.331C4.19057 2.06522 3.25844 3.09175 2.63804 4.30522C2.6073 4.35455 2.58709 4.4097 2.57867 4.46722C2.57025 4.52473 2.57381 4.58337 2.58912 4.63944C2.60443 4.69552 2.63116 4.74782 2.66764 4.79308C2.70412 4.83834 2.74956 4.87556 2.80111 4.90243C2.85265 4.9293 2.90919 4.94522 2.96719 4.9492C3.02518 4.95319 3.08337 4.94514 3.1381 4.92558C3.19284 4.90601 3.24294 4.87534 3.28526 4.8355C3.32759 4.79566 3.36122 4.7475 3.38406 4.69404ZM15.97 12.4404C16.0573 12.5895 16.1037 12.759 16.1047 12.9317C16.1057 13.1045 16.0613 13.2745 15.9757 13.4247C15.8902 13.5748 15.7667 13.6998 15.6176 13.7871C15.4685 13.8743 15.299 13.9208 15.1262 13.9219H3.87624C3.70383 13.9211 3.53466 13.875 3.38564 13.7883C3.23663 13.7016 3.113 13.5772 3.02714 13.4277C2.94128 13.2782 2.89619 13.1088 2.89639 12.9364C2.89659 12.7639 2.94207 12.5946 3.02827 12.4453C3.67445 11.3259 4.01687 9.7467 4.01687 7.87498C4.01687 6.42043 4.59469 5.02546 5.6232 3.99694C6.65172 2.96842 8.0467 2.39061 9.50124 2.39061C10.9558 2.39061 12.3508 2.96842 13.3793 3.99694C14.4078 5.02546 14.9856 6.42043 14.9856 7.87498C14.9856 9.77342 15.3189 11.309 15.9756 12.4404H15.97ZM15.2409 12.8622C14.5138 11.6015 14.1419 9.92389 14.1419 7.87498C14.1419 6.64421 13.6529 5.46385 12.7827 4.59356C11.9124 3.72328 10.732 3.23436 9.50124 3.23436C8.27047 3.23436 7.09011 3.72328 6.21983 4.59356C5.34954 5.46385 4.86062 6.64421 4.86062 7.87498C4.86062 9.92529 4.48867 11.6015 3.75601 12.8672C3.74367 12.8885 3.73717 12.9128 3.73717 12.9375C3.73717 12.9622 3.74367 12.9864 3.75601 13.0078C3.76759 13.0293 3.78486 13.0473 3.80594 13.0597C3.82701 13.0721 3.85109 13.0784 3.87554 13.0781H15.1262C15.1507 13.0784 15.1748 13.0721 15.1958 13.0597C15.2169 13.0473 15.2342 13.0293 15.2458 13.0078C15.2582 12.9865 15.2648 12.9623 15.265 12.9376C15.2651 12.9129 15.2587 12.8886 15.2465 12.8672L15.2409 12.8622Z" fill="black"/>
</svg>
