<svg width="101" height="100" viewBox="0 0 101 100" fill="none" xmlns="http://www.w3.org/2000/svg">
<path d="M70.0033 9.62012H24.9967L2.5 49.6201L24.9967 89.6201H70.0033L92.5 49.6201L70.0033 9.62012Z" fill="#F6F0F0"/>
<path d="M8.57365 49.9966L30.7891 10.5H75.2109L97.4263 49.9966L75.2109 89.5H30.7891L8.57365 49.9966Z" stroke="black" stroke-linecap="round" stroke-linejoin="round"/>
<path d="M72.7305 47.3021L70.5846 44.3229C70.1044 43.6484 69.4702 43.098 68.7347 42.7176C67.9991 42.3372 67.1835 42.1376 66.3555 42.1354H57.2305V37.6771C57.2305 36.2957 56.6817 34.971 55.705 33.9942C54.7282 33.0175 53.4035 32.4688 52.0221 32.4688H37.5013C36.1211 32.4726 34.7986 33.0226 33.8227 33.9985C32.8468 34.9744 32.2968 36.2969 32.293 37.6771V58.3854C32.293 59.2142 32.6222 60.0091 33.2083 60.5951C33.7943 61.1812 34.5892 61.5104 35.418 61.5104H37.9596C38.1169 62.6251 38.6715 63.6454 39.5213 64.3837C40.3711 65.122 41.4589 65.5285 42.5846 65.5285C43.7103 65.5285 44.7982 65.122 45.648 64.3837C46.4977 63.6454 47.0523 62.6251 47.2096 61.5104H58.793C58.9503 62.6251 59.5049 63.6454 60.3546 64.3837C61.2044 65.122 62.2923 65.5285 63.418 65.5285C64.5437 65.5285 65.6315 65.122 66.4813 64.3837C67.3311 63.6454 67.8857 62.6251 68.043 61.5104H70.5846C71.4134 61.5104 72.2083 61.1812 72.7943 60.5951C73.3804 60.0091 73.7096 59.2142 73.7096 58.3854V50.3229C73.7046 49.2388 73.3624 48.1831 72.7305 47.3021ZM42.5846 63.4479C42.0696 63.4479 41.5661 63.2952 41.1378 63.009C40.7096 62.7229 40.3758 62.3162 40.1787 61.8403C39.9816 61.3645 39.93 60.8409 40.0305 60.3357C40.131 59.8305 40.379 59.3665 40.7432 59.0023C41.1074 58.6381 41.5714 58.3901 42.0766 58.2896C42.5817 58.1891 43.1054 58.2407 43.5812 58.4378C44.0571 58.6349 44.4638 58.9687 44.7499 59.397C45.0361 59.8252 45.1888 60.3287 45.1888 60.8438C45.1888 61.5344 44.9144 62.1968 44.4261 62.6852C43.9377 63.1736 43.2753 63.4479 42.5846 63.4479ZM55.1471 59.4271H47.0638C46.7605 58.4773 46.1631 57.6486 45.358 57.0606C44.5528 56.4725 43.5816 56.1556 42.5846 56.1556C41.5876 56.1556 40.6164 56.4725 39.8113 57.0606C39.0062 57.6486 38.4088 58.4773 38.1055 59.4271H35.418C35.1417 59.4271 34.8767 59.3173 34.6814 59.122C34.486 58.9266 34.3763 58.6617 34.3763 58.3854V37.6771C34.3763 36.8483 34.7055 36.0534 35.2916 35.4674C35.8776 34.8813 36.6725 34.5521 37.5013 34.5521H52.0221C52.8509 34.5521 53.6458 34.8813 54.2318 35.4674C54.8179 36.0534 55.1471 36.8483 55.1471 37.6771V59.4271ZM63.418 63.4479C62.9029 63.4479 62.3994 63.2952 61.9712 63.009C61.5429 62.7229 61.2091 62.3162 61.012 61.8403C60.8149 61.3645 60.7634 60.8409 60.8638 60.3357C60.9643 59.8305 61.2123 59.3665 61.5765 59.0023C61.9407 58.6381 62.4048 58.3901 62.9099 58.2896C63.4151 58.1891 63.9387 58.2407 64.4145 58.4378C64.8904 58.6349 65.2971 58.9687 65.5833 59.397C65.8694 59.8252 66.0221 60.3287 66.0221 60.8438C66.0221 61.5344 65.7478 62.1968 65.2594 62.6852C64.771 63.1736 64.1086 63.4479 63.418 63.4479ZM71.6263 58.3854C71.6263 58.6617 71.5166 58.9266 71.3212 59.122C71.1259 59.3173 70.8609 59.4271 70.5846 59.4271H67.8971C67.5938 58.4773 66.9964 57.6486 66.1913 57.0606C65.3862 56.4725 64.415 56.1556 63.418 56.1556C62.421 56.1556 61.4498 56.4725 60.6446 57.0606C59.8395 57.6486 59.2421 58.4773 58.9388 59.4271H57.2305V44.2188H66.3555C66.8525 44.2221 67.3418 44.3427 67.7834 44.5708C68.2251 44.7988 68.6066 45.1279 68.8971 45.5313L71.043 48.5104C71.4179 49.0409 71.6215 49.6734 71.6263 50.3229V58.3854Z" fill="black" stroke="#F6F0F0" stroke-width="0.8"/>
<path d="M65.5599 49.4271H61.3932C61.117 49.4271 60.852 49.3173 60.6567 49.122C60.4613 48.9266 60.3516 48.6617 60.3516 48.3854C60.3516 48.1091 60.4613 47.8442 60.6567 47.6488C60.852 47.4535 61.117 47.3438 61.3932 47.3438H65.5599C65.8362 47.3438 66.1011 47.4535 66.2965 47.6488C66.4918 47.8442 66.6016 48.1091 66.6016 48.3854C66.6016 48.6617 66.4918 48.9266 66.2965 49.122C66.1011 49.3173 65.8362 49.4271 65.5599 49.4271Z" fill="black" stroke="#FFE9E9" stroke-width="0.58"/>
</svg>
