<svg width="101" height="100" viewBox="0 0 101 100" fill="none" xmlns="http://www.w3.org/2000/svg">
<g clip-path="url(#clip0_1_17532)">
<path d="M47.0886 3.51835L0.5 50.1069L47.0886 96.6955L93.6772 50.1069L47.0886 3.51835Z" fill="#F6F0F0"/>
<path d="M53.5886 95.8815L7.70711 50L53.5886 4.11852L99.4701 50L53.5886 95.8815Z" stroke="black" stroke-linecap="round" stroke-linejoin="round"/>
<path d="M72.3125 37.6055L55.125 28.1954C54.7801 28.0066 54.3932 27.9077 54 27.9077C53.6068 27.9077 53.2199 28.0066 52.875 28.1954L35.6875 37.6055C35.3188 37.8073 35.0111 38.1044 34.7967 38.4659C34.5823 38.8274 34.469 39.2399 34.4688 39.6602V58.3399C34.469 58.7602 34.5823 59.1727 34.7967 59.5342C35.0111 59.8957 35.3188 60.1928 35.6875 60.3946L52.875 69.8047C53.2197 69.9943 53.6066 70.0938 54 70.0938C54.3934 70.0938 54.7803 69.9943 55.125 69.8047L72.3125 60.3946C72.6812 60.1928 72.9889 59.8957 73.2033 59.5342C73.4177 59.1727 73.531 58.7602 73.5312 58.3399V39.6602C73.531 39.2399 73.4177 38.8274 73.2033 38.4659C72.9889 38.1044 72.6812 37.8073 72.3125 37.6055ZM53.625 29.5665C53.7396 29.5025 53.8687 29.4689 54 29.4689C54.1313 29.4689 54.2604 29.5025 54.375 29.5665L71.3184 38.8438L63.8633 42.9239C63.8279 42.8946 63.79 42.8684 63.75 42.8458L46.5625 33.4356L53.625 29.5665ZM54 48.3165L36.6816 38.8438L44.9297 34.3262L62.248 43.8067L54 48.3165ZM36.4375 59.0196C36.3148 58.9524 36.2124 58.8536 36.1409 58.7333C36.0694 58.6131 36.0316 58.4759 36.0312 58.336V40.2676L53.2188 49.6739V68.211L36.4375 59.0196ZM71.5625 59.0196L54.7812 68.1993V49.6739L62.5938 45.3985V53.6876C62.5938 53.8948 62.6761 54.0935 62.8226 54.24C62.9691 54.3865 63.1678 54.4688 63.375 54.4688C63.5822 54.4688 63.7809 54.3865 63.9274 54.24C64.0739 54.0935 64.1562 53.8948 64.1562 53.6876V44.543L71.9688 40.2676V58.3399C71.9684 58.4798 71.9306 58.617 71.8591 58.7372C71.7876 58.8575 71.6852 58.9564 71.5625 59.0235V59.0196Z" fill="black" stroke="#F6F0F0" stroke-width="0.5"/>
</g>
<defs>
<clipPath id="clip0_1_17532">
<rect width="100" height="100" fill="white" transform="translate(0.5)"/>
</clipPath>
</defs>
</svg>
